<svg xmlns="http://www.w3.org/2000/svg" width="99.994" height="54.835" viewBox="0 0 93 51">
  <metadata><?xpacket begin="﻿" id="W5M0MpCehiHzreSzNTczkc9d"?>
<x:xmpmeta xmlns:x="adobe:ns:meta/" x:xmptk="Adobe XMP Core 5.6-c138 79.159824, 2016/09/14-01:09:01        ">
   <rdf:RDF xmlns:rdf="http://www.w3.org/1999/02/22-rdf-syntax-ns#">
      <rdf:Description rdf:about=""/>
   </rdf:RDF>
</x:xmpmeta>
                                                                                                    
                                                                                                    
                                                                                                    
                                                                                                    
                                                                                                    
                                                                                                    
                                                                                                    
                                                                                                    
                                                                                                    
                                                                                                    
                                                                                                    
                                                                                                    
                                                                                                    
                                                                                                    
                                                                                                    
                                                                                                    
                                                                                                    
                                                                                                    
                                                                                                    
                                                                                                    
                           
<?xpacket end="w"?></metadata>
<defs>
    <style>
      .cls-1 {
        fill: #fff;
        fill-rule: evenodd;
      }
    </style>
  </defs>
  <path class="cls-1" d="M18.407,7a15.556,15.556,0,0,1,9.312,2.947,13.083,13.083,0,0,1,1.765,1.474,3.83,3.83,0,0,1,.57.628c1.107-.622,2.128-1.5,3.2-2.183A17.737,17.737,0,0,1,37.33,8.013a11.293,11.293,0,0,1,5.81-.055c0.356,0.11.677,0.137,1,.273a9.968,9.968,0,0,1,4.968,3.93,7.181,7.181,0,0,1,1.14,2.975H50.225a0.969,0.969,0,0,1-.081-0.082,2.946,2.946,0,0,1-.19-0.6,8.591,8.591,0,0,0-.624-1.283A8.665,8.665,0,0,0,45.5,9.923a15.774,15.774,0,0,0-2.416-.737,9.407,9.407,0,0,0-3.394-.027c-0.475.115-.895,0.1-1.33,0.246A13.706,13.706,0,0,0,34.7,11.124c-0.6.422-1.131,0.925-1.71,1.364-0.294.224-.521,0.568-0.814,0.791-0.446.339-.807,0.784-1.249,1.119a3.881,3.881,0,0,0-.842.682H30.054V15.054c-0.226-.147-0.36-0.413-0.57-0.573-0.567-.432-1.061-0.934-1.629-1.365-0.173-.131-0.313-0.336-0.489-0.464a18.144,18.144,0,0,0-5.918-2.811c-0.476-.135-1-0.133-1.493-0.246H19.6a6.978,6.978,0,0,0-3.122.382c-2.861,1.068-4.278,2.815-5.24,5.785-0.153.471-.229,1.028-0.353,1.556l-0.054.819a4.862,4.862,0,0,0,0,1.583l0.054,0.846a21,21,0,0,0,.814,3.193,30.517,30.517,0,0,0,3.855,6.495c0.554,0.758,1.255,1.406,1.819,2.156,0.173,0.23.452,0.4,0.624,0.628a12.888,12.888,0,0,0,1.222,1.283A12.879,12.879,0,0,0,20.5,35.548l0.3,0.327a8.2,8.2,0,0,0,.706.6l0.217,0.246c0.974,0.741,1.838,1.6,2.823,2.347,0.327,0.246.6,0.6,0.923,0.846,1.033,0.785,1.925,1.728,2.959,2.511,0.406,0.307.755,0.7,1.167,1.01a1.97,1.97,0,0,0,.489.409,3.177,3.177,0,0,1,.814-0.628c0.6-.434,1.184-0.9,1.792-1.337,2.092-1.511,4.118-3.123,6.217-4.639,0.812-.587,1.557-1.257,2.362-1.856a5.084,5.084,0,0,1,.95-0.764v0.027a2.47,2.47,0,0,0-.38.491,12.128,12.128,0,0,1-1.14,1.228l-0.272.328c-0.369.282-.64,0.678-1,0.955-0.575.437-1.08,0.955-1.656,1.392l-0.326.355c-0.271.206-.489,0.449-0.76,0.655l-0.326.355c-0.271.206-.489,0.449-0.76,0.655l-0.326.355c-0.271.206-.489,0.449-0.76,0.655l-0.326.355c-0.8.61-1.472,1.379-2.281,1.992-0.137.1-.243,0.278-0.38,0.382-0.376.285-.689,0.648-1.059,0.928a1.288,1.288,0,0,0-.326.273,3.734,3.734,0,0,1-.516-0.409c-0.471-.349-0.918-0.726-1.384-1.064-1.584-1.15-3.076-2.417-4.642-3.575S20.552,38.542,19,37.377c-0.551-.415-1.021-0.944-1.575-1.364-0.2-.15-0.346-0.4-0.543-0.546a6.876,6.876,0,0,1-.706-0.628l-0.272-.3a10.25,10.25,0,0,1-1.683-1.747c-0.126-.168-0.335-0.3-0.462-0.464-0.334-.444-0.733-0.838-1.059-1.283a27.934,27.934,0,0,1-3.231-5.321A24.559,24.559,0,0,1,8.417,22.5c-0.125-.446-0.14-0.922-0.244-1.364L8.118,20.4a8.023,8.023,0,0,1-.027-2.565l0.027-.6,0.217-1.364A15.737,15.737,0,0,1,9.964,11.7a9.8,9.8,0,0,1,5.565-4.2,18.569,18.569,0,0,1,2.036-.382A3.093,3.093,0,0,0,18.407,7Zm44.931,9.633h1.9V23.35h0.054V23.3a4.625,4.625,0,0,0,.38-0.546,3.869,3.869,0,0,1,1.873-1.2c0.3-.1.634-0.1,0.95-0.164a3.971,3.971,0,0,1,1.873.273,4.486,4.486,0,0,1,2.769,3.357,6.447,6.447,0,0,1,.217,1.8v0.491c-0.106.491-.075,1-0.217,1.446a5.4,5.4,0,0,1-2.362,3.22,5.029,5.029,0,0,1-1.249.464,3.263,3.263,0,0,1-1.33.055c-0.351-.077-0.622-0.038-0.923-0.136a3.6,3.6,0,0,1-2.2-1.828H64.994l-0.081,1.747H63.257a5.856,5.856,0,0,1,.054-1.146c0.064-.3-0.03-0.69.027-0.955V16.637Zm-22.262.546a8.866,8.866,0,0,1,4.045.682L44.66,19.393c-0.414-.108-0.832-0.314-1.276-0.437-0.377-.1-0.8-0.079-1.194-0.164H41.646a5.978,5.978,0,0,0-2.28.409,5.233,5.233,0,0,0-3.2,3.63c-0.127.4-.126,0.858-0.217,1.283v0.464a6.112,6.112,0,0,0,.109,1.91,7.44,7.44,0,0,0,.815,2.1,5.186,5.186,0,0,0,2.986,2.1c0.3,0.1.585,0.062,0.923,0.137a5.806,5.806,0,0,0,1.928,0l1.113-.218a6.577,6.577,0,0,1,.9-0.327c0.1,0.515.33,1,.38,1.528l-0.9.328c-0.445.143-.941,0.167-1.412,0.273l-0.516.027a6.782,6.782,0,0,1-2.579-.082A10.011,10.011,0,0,1,38.253,32a6.468,6.468,0,0,1-3.909-4.175,13.463,13.463,0,0,1-.38-1.637l-0.027-.655a3.28,3.28,0,0,1,0-1.064l0.027-.655a13.223,13.223,0,0,1,.624-2.347A7.1,7.1,0,0,1,38.551,17.7a11.425,11.425,0,0,1,1.71-.437A4.264,4.264,0,0,0,41.076,17.182Zm10.344,0a7.735,7.735,0,0,1,2.851.382,1.4,1.4,0,0,1,.814.409,7.448,7.448,0,0,0-.407,1.119,1.131,1.131,0,0,1-.136.382,3.073,3.073,0,0,0-1.14-.464c-1.63-.529-3.358-0.238-4.1.9a2.2,2.2,0,0,0-.271,1.692c0.463,1.563,2.258,1.946,3.665,2.565a4.961,4.961,0,0,1,2.769,2.592,5.155,5.155,0,0,1,.163.819,3.944,3.944,0,0,1-.054,1.692,4.225,4.225,0,0,1-2.959,2.947c-0.5.164-1.061,0.151-1.629,0.273a2.7,2.7,0,0,1-.9-0.027c-0.295-.065-0.538.011-0.815-0.054a11.351,11.351,0,0,1-1.765-.491,1.211,1.211,0,0,1-.76-0.437A7.037,7.037,0,0,0,47.1,30.39a0.735,0.735,0,0,1,.163-0.437,3.354,3.354,0,0,0,1.032.491,5.755,5.755,0,0,0,3.529.328,2.51,2.51,0,0,0,1.71-1.446,2.648,2.648,0,0,0,.163-1.5c-0.424-1.673-1.959-2.015-3.421-2.647a5.877,5.877,0,0,1-2.552-1.856,3.853,3.853,0,0,1-.6-1.228l-0.054-.546a2.039,2.039,0,0,1-.027-0.682,6.472,6.472,0,0,1,.3-1.119,3.313,3.313,0,0,1,.923-1.364A6.039,6.039,0,0,1,50.09,17.4l0.787-.164A2.144,2.144,0,0,0,51.42,17.182ZM58.994,17.4a1.217,1.217,0,1,1-.977.873,1.268,1.268,0,0,1,.679-0.791A2.033,2.033,0,0,0,58.994,17.4Zm-38.632.027h2.09a6.679,6.679,0,0,0,.462.709q0.685,1.086,1.357,2.156c1.254,1.99,2.463,3.961,3.692,5.976,0.465,0.762.878,1.552,1.3,2.374a5.926,5.926,0,0,1,.543,1.119h0.027V29.736a2.988,2.988,0,0,0-.054-0.873l-0.109-2.347c-0.014-2.985-.024-6.06-0.027-9.087h1.792V32.273H29.511a8.245,8.245,0,0,0-.543-0.846c-0.415-.658-0.814-1.318-1.222-1.965-0.982-1.561-1.9-3.131-2.878-4.694a35.247,35.247,0,0,1-2.8-4.994H22.045V19.8a3.21,3.21,0,0,0,0,.928c0.069,0.761.079,1.56,0.081,2.374,0.009,3,.025,6.121.027,9.169H20.362V17.428Zm58.261,3.957a5.6,5.6,0,0,1,2.308.355,0.966,0.966,0,0,1,.679.382c-0.25.334-.232,1.017-0.489,1.337a1.784,1.784,0,0,0-.6-0.3c-1.057-.448-2.492-0.516-3.095.409a1.385,1.385,0,0,0-.19,1.092c0.292,0.921,1.342,1.139,2.2,1.5A4.07,4.07,0,0,1,81.8,28.153a4.647,4.647,0,0,1,.163.819A2.717,2.717,0,0,1,81.88,30.2a3.256,3.256,0,0,1-2.362,2.129c-0.335.106-.648,0.057-1.032,0.136a3.872,3.872,0,0,1-1.439-.054l-0.462-.055a8.576,8.576,0,0,1-1.086-.382,0.585,0.585,0,0,1-.434-0.273,2.785,2.785,0,0,0,.244-0.764c0.066-.2.164-0.409,0.217-0.628h0.054a2.515,2.515,0,0,0,.787.382c1.061,0.447,2.572.585,3.366-.218a1.534,1.534,0,0,0,.353-1.446c-0.317-1.063-1.479-1.271-2.443-1.692A4.156,4.156,0,0,1,75.8,25.888,2.461,2.461,0,0,1,75.392,24a3.7,3.7,0,0,1,.271-0.791,2.893,2.893,0,0,1,.76-1.01,4.453,4.453,0,0,1,1.276-.655A9.28,9.28,0,0,0,78.623,21.385Zm-20.389.246h1.928V32.273H58.234V21.631ZM67.9,22.94c-0.152.1-.6,0.135-0.787,0.218a3.253,3.253,0,0,0-1.737,1.992,5.337,5.337,0,0,0-.136,1.583v1.528a3.047,3.047,0,0,0,1.792,2.456,2.866,2.866,0,0,0,1.6.246A3.135,3.135,0,0,0,71.1,28.917a8.151,8.151,0,0,0,.3-1.283,4.724,4.724,0,0,0-.136-2.047C70.771,23.921,70.075,22.927,67.9,22.94Z"/>
</svg>
